<svg xmlns="http://www.w3.org/2000/svg" xmlns:xlink="http://www.w3.org/1999/xlink" width="239.449" height="268.857" viewBox="0 0 239.449 268.857">
  <defs>
    <clipPath id="clip-path">
      <rect id="Rectangle_183" data-name="Rectangle 183" width="238.449" height="267.857"/>
    </clipPath>
    <clipPath id="clip-path-5">
      <rect id="Rectangle_187" data-name="Rectangle 187" width="238.449" height="267.857" fill="none" stroke="#000" stroke-width="1"/>
    </clipPath>
  </defs>
  <g id="Group_55" data-name="Group 55" transform="translate(0.5 0.5)">
    <g id="Group_45" data-name="Group 45">
      <g id="Group_44" data-name="Group 44" clip-path="url(#clip-path)">
        <text id="a" transform="matrix(0.731, -0.683, 0.683, 0.731, 28.674, 71.392)" font-size="44" font-family="RocGrotesk-Medium, Roc Grotesk" font-weight="500"><tspan x="0" y="0">a</tspan></text>
      </g>
    </g>
    <text id="_" data-name=" " transform="translate(45.675 53.558) rotate(-33.31)" font-size="41" font-family="RocGrotesk-Medium, Roc Grotesk" font-weight="500"><tspan x="0" y="0"> </tspan></text>
    <text id="c" transform="translate(54.001 49.621) rotate(-23.65)" font-size="43" font-family="RocGrotesk-Medium, Roc Grotesk" font-weight="500"><tspan x="0" y="0">c</tspan></text>
    <g id="Group_47" data-name="Group 47">
      <g id="Group_46" data-name="Group 46" clip-path="url(#clip-path)">
        <text id="i" transform="matrix(0.971, -0.24, 0.24, 0.971, 75.233, 37.661)" font-size="40" font-family="RocGrotesk-Medium, Roc Grotesk" font-weight="500"><tspan x="0" y="0">i</tspan></text>
        <text id="r" transform="translate(84.806 37.694) rotate(-4.396)" font-size="44" font-family="RocGrotesk-Medium, Roc Grotesk" font-weight="500"><tspan x="0" y="0">r</tspan></text>
        <text id="c-2" data-name="c" transform="translate(107.496 35.725) rotate(8.98)" font-size="43" font-family="RocGrotesk-Medium, Roc Grotesk" font-weight="500"><tspan x="0" y="0">c</tspan></text>
      </g>
    </g>
    <text id="u" transform="matrix(0.917, 0.399, -0.399, 0.917, 130.66, 39.006)" font-size="44" font-family="RocGrotesk-Medium, Roc Grotesk" font-weight="500"><tspan x="0" y="0">u</tspan></text>
    <text id="l" transform="matrix(0.83, 0.558, -0.558, 0.83, 155.688, 48.492)" font-size="41" font-family="RocGrotesk-Medium, Roc Grotesk" font-weight="500"><tspan x="0" y="0">l</tspan></text>
    <text id="a-2" data-name="a" transform="translate(162.579 54.648) rotate(43.676)" font-size="44" font-family="RocGrotesk-Medium, Roc Grotesk" font-weight="500"><tspan x="0" y="0">a</tspan></text>
    <text id="r-2" data-name="r" transform="translate(179.943 71.062) rotate(57.249)" font-size="44" font-family="RocGrotesk-Medium, Roc Grotesk" font-weight="500"><tspan x="0" y="0">r</tspan></text>
    <text id="_2" data-name=" " transform="translate(193.892 90) rotate(66.744)" font-size="41" font-family="RocGrotesk-Medium, Roc Grotesk" font-weight="500"><tspan x="0" y="0"> </tspan></text>
    <g id="Group_49" data-name="Group 49">
      <g id="Group_48" data-name="Group 48" clip-path="url(#clip-path)">
        <text id="d" transform="translate(196.465 98.757) rotate(77.214)" font-size="44" font-family="RocGrotesk-Medium, Roc Grotesk" font-weight="500"><tspan x="0" y="0">d</tspan></text>
        <text id="e" transform="matrix(-0.028, 1, -1, -0.028, 202.256, 124.158)" font-size="44" font-family="RocGrotesk-Medium, Roc Grotesk" font-weight="500"><tspan x="0" y="0">e</tspan></text>
        <text id="s" transform="matrix(-0.263, 0.965, -0.965, -0.263, 201.763, 147.74)" font-size="44" font-family="RocGrotesk-Medium, Roc Grotesk" font-weight="500"><tspan x="0" y="0">s</tspan></text>
      </g>
    </g>
    <text id="i-2" data-name="i" transform="matrix(-0.421, 0.907, -0.907, -0.421, 197.821, 171.516)" font-size="40" font-family="RocGrotesk-Medium, Roc Grotesk" font-weight="500"><tspan x="0" y="0">i</tspan></text>
    <text id="g" transform="matrix(-0.574, 0.819, -0.819, -0.574, 191.969, 178.932)" font-size="44" font-family="RocGrotesk-Medium, Roc Grotesk" font-weight="500"><tspan x="0" y="0">g</tspan></text>
    <text id="n" transform="matrix(-0.764, 0.645, -0.645, -0.764, 177.887, 199.516)" font-size="44" font-family="RocGrotesk-Medium, Roc Grotesk" font-weight="500"><tspan x="0" y="0">n</tspan></text>
    <text id="_3" data-name=" " transform="translate(158.235 217.781) rotate(150.23)" font-size="41" font-family="RocGrotesk-Medium, Roc Grotesk" font-weight="500"><tspan x="0" y="0"> </tspan></text>
    <g id="Group_51" data-name="Group 51">
      <g id="Group_50" data-name="Group 50" clip-path="url(#clip-path)">
        <text id="s-2" data-name="s" transform="translate(149.671 221.18) rotate(159.824)" font-size="44" font-family="RocGrotesk-Medium, Roc Grotesk" font-weight="500"><tspan x="0" y="0">s</tspan></text>
        <text id="t" transform="translate(127.768 229.009) rotate(171.561)" font-size="43" font-family="RocGrotesk-Medium, Roc Grotesk" font-weight="500"><tspan x="0" y="0">t</tspan></text>
        <text id="u-2" data-name="u" transform="translate(111.511 232.098) rotate(-176.068)" font-size="44" font-family="RocGrotesk-Medium, Roc Grotesk" font-weight="500"><tspan x="0" y="0">u</tspan></text>
        <text id="d-2" data-name="d" transform="matrix(-0.945, -0.328, 0.328, -0.945, 85.581, 230.555)" font-size="44" font-family="RocGrotesk-Medium, Roc Grotesk" font-weight="500"><tspan x="0" y="0">d</tspan></text>
      </g>
    </g>
    <text id="i-3" data-name="i" transform="translate(59.344 223.841) rotate(-150.34)" font-size="40" font-family="RocGrotesk-Medium, Roc Grotesk" font-weight="500"><tspan x="0" y="0">i</tspan></text>
    <text id="o" transform="translate(52.429 217.387) rotate(-140.254)" font-size="44" font-family="RocGrotesk-Medium, Roc Grotesk" font-weight="500"><tspan x="0" y="0">o</tspan></text>
  </g>
</svg>
