<svg xmlns="http://www.w3.org/2000/svg" xmlns:xlink="http://www.w3.org/1999/xlink" width="424.201" height="424.201" viewBox="0 0 424.201 424.201">
  <defs>
    <clipPath id="clip-path">
      <rect id="Rectangle_342" data-name="Rectangle 342" width="424.201" height="424.201" fill="none"/>
    </clipPath>
    <clipPath id="clip-path-4">
      <rect id="Rectangle_340" data-name="Rectangle 340" width="361.247" height="356.023" fill="none"/>
    </clipPath>
    <clipPath id="clip-path-5">
      <rect id="Rectangle_339" data-name="Rectangle 339" width="361.248" height="356.022" fill="none"/>
    </clipPath>
  </defs>
  <g id="Group_151" data-name="Group 151" clip-path="url(#clip-path)">
    <g id="Group_143" data-name="Group 143">
      <g id="Group_142" data-name="Group 142" clip-path="url(#clip-path)">
        <path id="Path_162" data-name="Path 162" d="M424.2,212.1c0,117.14-94.961,212.1-212.1,212.1S0,329.24,0,212.1,94.96,0,212.1,0,424.2,94.961,424.2,212.1" transform="translate(0)" fill="#c0a8ba"/>
      </g>
    </g>
    <g id="Group_150" data-name="Group 150">
      <g id="Group_149" data-name="Group 149" clip-path="url(#clip-path)">
        <g id="Group_148" data-name="Group 148" transform="translate(52.631 54.938)" opacity="0.3">
          <g id="Group_147" data-name="Group 147" transform="translate(-21.155 -25)">
            <g id="Group_146" data-name="Group 146" clip-path="url(#clip-path-4)">
              <g id="Group_145" data-name="Group 145" transform="translate(-0.001 0.001)">
                <g id="Group_144" data-name="Group 144" clip-path="url(#clip-path-5)">
                  <path id="Path_163" data-name="Path 163" d="M92.769,256.048c20.99-3.879,28.99-21.019,26.578-35.078-2.384-13.951,5.1-19.771,8.507-22.06,11.552-7.756,25.305-1.356,48.527-12.186,43.014-20.063,14.789-79.993-14.452-96.505-29.1-13.525-52.407.586-67.156,10.043C73.354,114,62.444,137.547,57.5,151.126,27.074,234.783,72.489,259.779,92.769,256.048m19.721-117.47a11.45,11.45,0,0,1,9.634-5.627c10.188-1.147,20.1,19.884,4.177,24.249a19.463,19.463,0,0,1-5.221.756c-7.421-.016-14.524-8.859-8.586-19.378" transform="translate(-47.3 -40.197)" fill="#fff"/>
                  <path id="Path_164" data-name="Path 164" d="M346.434,157.941c-22.262-1.352-35.889,23.472-67.165,38.145-24.779,11.64-44.513,8.94-57.711,8.94-19.819,0-29.34,10.039-31.1,16.6-10.314,38.64,34.4,31.908,50.036,79.289a39.8,39.8,0,0,1,.16,22.884c-11.431,41.482,19.884,50.918,42.565,31.817,15.287-12.9,23.927-28.474,24.092-44.2.145-13.214-4.506-26.617,15.8-35.4,32.127-13.932,29.263-29.468,22.307-35.635-7.118-6.3-20.247-.1-26.716,3.492-21.41,11.926-31.848,7.169-32.793-3.752-.639-7.613,10.552-10.168,17.074-10.566,39.693-2.426,63.415-15.481,67.5-33.282,5.753-25.065-10.531-37.514-24.063-38.332" transform="translate(-10.436 -21.13)" fill="#fff"/>
                  <path id="Path_165" data-name="Path 165" d="M186.624,171.725c-5.574,39.46,41.707,41.537,80.343,30.944,38.378-10.518,61.368-35.472,60.963-65.248-.513-37.238-28.13-70.668-64.255-73.52-21.577-1.7-19.729,21.664-10.67,35.945,18.675,29.389-9.927,34.348-14.219,15.557-2.91-12.716-4.294-23.139-10.6-41.22-9.064-26.133-32.643-26.45-45.288-23.639-14.774,3.287-25.446,12.047-22.443,26.781,5.187,25.462,33.544,42.545,26.166,94.4" transform="translate(-17.98 -49.375)" fill="#fff"/>
                  <path id="Path_166" data-name="Path 166" d="M227.707,278.547c-58.368-40.032-22.029-63-29.65-79.838-10.373-22.917-49.986-15.091-60.079,1.456-15.364,25.217,6.516,40.249,16.031,60.786,4.277,9.214,3.482,20.514-4.506,21.722-14.007,2.108-19.461-16.487-21.4-22.075-5.636-16.236-24.378-16.679-37.979-11.45-37.373,14.534-8.033,72.377,19.6,89.017,12.768,7.688,63.042,44.416,106.314,27.817,5.7-2.188,29.658-12.684,32.042-45.883.975-13.649-2.175-29.07-20.38-41.552" transform="translate(-40.754 -14.22)" fill="#fff"/>
                </g>
              </g>
            </g>
          </g>
        </g>
      </g>
    </g>
    <text id="ENTER" transform="translate(81.251 240.222)" fill="#fff" font-size="82" font-family="RocGrotesk-Bold, Roc Grotesk" font-weight="700"><tspan x="0" y="0">ENTER</tspan></text>
  </g>
</svg>
